<?xml version="1.0" encoding="UTF-8"?>
<svg xmlns="http://www.w3.org/2000/svg"
     xmlns:xlink="http://www.w3.org/1999/xlink"
     version="1.2"
     width="160mm" height="160mm" viewBox="0 0 160 160"
     stroke="none"
     fill="#000000"
     stroke-width="0.3"
     font-size="3.88"
>
<defs>
  <marker id="arrow" markerWidth="15" markerHeight="7" refX="5" refY="3.5" orient="auto" markerUnits="strokeWidth">
    <path d="M0,0 L15,3.5 L0,7 z" stroke="context-stroke" fill="context-stroke"/>
  </marker>
</defs>
<g stroke-width="0.42" fill="#000000" fill-opacity="0.000" stroke="#D3D3D3" id="img-90a7ad38-1">
  <g transform="translate(122.29,55.29)">
    <path fill="none" d="M-7.09,20.98 L7.09,-20.98 " class="primitive"/>
  </g>
  <g transform="translate(108.14,111.03)">
    <path fill="none" d="M5.86,-30.22 L-5.86,30.22 " class="primitive"/>
  </g>
  <g transform="translate(112.82,111)">
    <path fill="none" d="M1.51,-30.15 L-1.51,30.15 " class="primitive"/>
  </g>
  <g transform="translate(72.42,102.59)">
    <path fill="none" d="M39.98,-22.92 L-39.98,22.92 " class="primitive"/>
  </g>
  <g transform="translate(82.6,64.95)">
    <path fill="none" d="M29.68,12.63 L-29.68,-12.63 " class="primitive"/>
  </g>
  <g transform="translate(75.53,106.48)">
    <path fill="none" d="M37,-26.6 L-37,26.6 " class="primitive"/>
  </g>
  <g transform="translate(77.24,45.28)">
    <path fill="none" d="M32.55,-24.97 L-32.55,24.97 " class="primitive"/>
  </g>
  <g transform="translate(76.37,21.89)">
    <path fill="none" d="M32.94,-2.82 L-32.94,2.82 " class="primitive"/>
  </g>
  <g transform="translate(69.83,50.19)">
    <path fill="none" d="M39.94,-29.91 L-39.94,29.91 " class="primitive"/>
  </g>
  <g transform="translate(84.63,65.41)">
    <path fill="none" d="M25.85,-44.5 L-25.85,44.5 " class="primitive"/>
  </g>
  <g transform="translate(124.79,36.16)">
    <path fill="none" d="M-11.7,-15.41 L11.7,15.41 " class="primitive"/>
  </g>
  <g transform="translate(107.38,69.6)">
    <path fill="none" d="M4.09,-48.38 L-4.09,48.38 " class="primitive"/>
  </g>
  <g transform="translate(74.14,76.66)">
    <path fill="none" d="M36.24,-55.81 L-36.24,55.81 " class="primitive"/>
  </g>
  <g transform="translate(128,42.55)">
    <path fill="none" d="M-15,-21.74 L15,21.74 " class="primitive"/>
  </g>
  <g transform="translate(92.04,53.09)">
    <path fill="none" d="M18.45,-32.17 L-18.45,32.17 " class="primitive"/>
  </g>
  <g transform="translate(86.48,51.88)">
    <path fill="none" d="M41.51,-18.83 L-41.51,18.83 " class="primitive"/>
  </g>
  <g transform="translate(79.07,56.8)">
    <path fill="none" d="M48.94,-23.69 L-48.94,23.69 " class="primitive"/>
  </g>
  <g transform="translate(93.87,72.02)">
    <path fill="none" d="M34.68,-38.19 L-34.68,38.19 " class="primitive"/>
  </g>
  <g transform="translate(103.41,80.23)">
    <path fill="none" d="M25.58,-46.09 L-25.58,46.09 " class="primitive"/>
  </g>
  <g transform="translate(132.32,56.09)">
    <path fill="none" d="M-1.97,-21.66 L1.97,21.66 " class="primitive"/>
  </g>
  <g transform="translate(86.7,37.65)">
    <path fill="none" d="M41.1,-5.27 L-41.1,5.27 " class="primitive"/>
  </g>
  <g transform="translate(76.81,37.91)">
    <path fill="none" d="M50.99,-5.58 L-50.99,5.58 " class="primitive"/>
  </g>
  <g transform="translate(110.59,88.54)">
    <path fill="none" d="M18.78,-54.23 L-18.78,54.23 " class="primitive"/>
  </g>
  <g transform="translate(111.52,52.05)">
    <path fill="none" d="M17.01,-18.25 L-17.01,18.25 " class="primitive"/>
  </g>
  <g transform="translate(35.41,76.6)">
    <path fill="none" d="M5.44,-3.62 L-5.44,3.62 " class="primitive"/>
  </g>
  <g transform="translate(50.21,91.82)">
    <path fill="none" d="M-6.58,-17.92 L6.58,17.92 " class="primitive"/>
  </g>
  <g transform="translate(59.75,100.04)">
    <path fill="none" d="M-15.73,-26.33 L15.73,26.33 " class="primitive"/>
  </g>
  <g transform="translate(88.66,75.89)">
    <path fill="none" d="M-43.5,-3.99 L43.5,3.99 " class="primitive"/>
  </g>
  <g transform="translate(59.6,50.5)">
    <path fill="none" d="M-15.33,19.33 L15.33,-19.33 " class="primitive"/>
  </g>
  <g transform="translate(79.46,53.03)">
    <path fill="none" d="M-34.55,17.58 L34.55,-17.58 " class="primitive"/>
  </g>
  <g transform="translate(46.78,61.54)">
    <path fill="none" d="M-3.11,7.94 L3.11,-7.94 " class="primitive"/>
  </g>
  <g transform="translate(65.23,43.92)">
    <path fill="none" d="M-20.93,25.92 L20.93,-25.92 " class="primitive"/>
  </g>
  <g transform="translate(34.54,53.22)">
    <path fill="none" d="M6.01,-26.01 L-6.01,26.01 " class="primitive"/>
  </g>
  <g transform="translate(58.88,76.65)">
    <path fill="none" d="M-17.03,-49.51 L17.03,49.51 " class="primitive"/>
  </g>
  <g transform="translate(42.17,34.07)">
    <path fill="none" d="M-0.81,-6.81 L0.81,6.81 " class="primitive"/>
  </g>
  <g transform="translate(32.28,34.33)">
    <path fill="none" d="M7.19,-7.69 L-7.19,7.69 " class="primitive"/>
  </g>
  <g transform="translate(66.06,84.96)">
    <path fill="none" d="M-24.08,-57.86 L24.08,57.86 " class="primitive"/>
  </g>
  <g transform="translate(78.6,29.65)">
    <path fill="none" d="M-35.18,-4.43 L35.18,4.43 " class="primitive"/>
  </g>
  <g transform="translate(28.37,44.55)">
    <path fill="none" d="M11.43,-17.66 L-11.43,17.66 " class="primitive"/>
  </g>
  <g transform="translate(28.85,50.44)">
    <path fill="none" d="M11.22,-23.4 L-11.22,23.4 " class="primitive"/>
  </g>
  <g transform="translate(45.91,38.16)">
    <path fill="none" d="M-4.02,-11.03 L4.02,11.03 " class="primitive"/>
  </g>
  <g transform="translate(64.36,20.54)">
    <path fill="none" d="M-20.96,3.94 L20.96,-3.94 " class="primitive"/>
  </g>
  <g transform="translate(81.26,80.81)">
    <path fill="none" d="M-50.9,0.68 L50.9,-0.68 " class="primitive"/>
  </g>
  <g transform="translate(35.64,62.37)">
    <path fill="none" d="M-6.76,16.96 L6.76,-16.96 " class="primitive"/>
  </g>
  <g transform="translate(25.74,62.64)">
    <path fill="none" d="M1.98,16.54 L-1.98,-16.54 " class="primitive"/>
  </g>
  <g transform="translate(85.61,95.78)">
    <path fill="none" d="M-55.32,-13.69 L55.32,13.69 " class="primitive"/>
  </g>
  <g transform="translate(52.2,55.42)">
    <path fill="none" d="M-22.59,24.37 L22.59,-24.37 " class="primitive"/>
  </g>
  <g transform="translate(81.4,104.23)">
    <path fill="none" d="M-51.23,-21.79 L51.23,21.79 " class="primitive"/>
  </g>
  <g transform="translate(50.21,84.41)">
    <path fill="none" d="M-19.86,-2.59 L19.86,2.59 " class="primitive"/>
  </g>
  <g transform="translate(67.14,120.17)">
    <path fill="none" d="M-7.76,-6.68 L7.76,6.68 " class="primitive"/>
  </g>
  <g transform="translate(96.06,96.03)">
    <path fill="none" d="M-36.28,15.02 L36.28,-15.02 " class="primitive"/>
  </g>
  <g transform="translate(80.14,64.12)">
    <path fill="none" d="M-21.53,45.71 L21.53,-45.71 " class="primitive"/>
  </g>
  <g transform="translate(57.06,129.25)">
    <path fill="none" d="M0.47,-14.94 L-0.47,14.94 " class="primitive"/>
  </g>
  <g transform="translate(84.4,127.73)">
    <path fill="none" d="M-24.77,-14.58 L24.77,14.58 " class="primitive"/>
  </g>
  <g transform="translate(90.33,123.62)">
    <path fill="none" d="M-30.51,-10.88 L30.51,10.88 " class="primitive"/>
  </g>
  <g transform="translate(47.11,123.2)">
    <path fill="none" d="M8.89,-9.53 L-8.89,9.53 " class="primitive"/>
  </g>
  <g transform="translate(105.6,104.24)">
    <path fill="none" d="M-27.1,22.63 L27.1,-22.63 " class="primitive"/>
  </g>
  <g transform="translate(89.26,135.97)">
    <path fill="none" d="M-10.56,-6.37 L10.56,6.37 " class="primitive"/>
  </g>
  <g transform="translate(66.6,137.46)">
    <path fill="none" d="M8.33,-7.5 L-8.33,7.5 " class="primitive"/>
  </g>
  <g transform="translate(69.67,71.95)">
    <path fill="none" d="M6.72,54.1 L-6.72,-54.1 " class="primitive"/>
  </g>
  <g transform="translate(45.01,112.21)">
    <path fill="none" d="M29.58,15.11 L-29.58,-15.11 " class="primitive"/>
  </g>
  <g transform="translate(76.54,78.86)">
    <path fill="none" d="M0.14,47.17 L-0.14,-47.17 " class="primitive"/>
  </g>
  <g transform="translate(82.17,72.28)">
    <path fill="none" d="M-5.25,53.76 L5.25,-53.76 " class="primitive"/>
  </g>
  <g transform="translate(118.59,48.19)">
    <path fill="none" d="M14.87,29.8 L-14.87,-29.8 " class="primitive"/>
  </g>
  <g transform="translate(140.59,91.59)">
    <path fill="none" d="M-4.97,-9.4 L4.97,9.4 " class="primitive"/>
  </g>
  <g transform="translate(105.45,54.71)">
    <path fill="none" d="M27.28,23.84 L-27.28,-23.84 " class="primitive"/>
  </g>
  <g transform="translate(139.08,84.77)">
    <path fill="none" d="M-2.92,-2.98 L2.92,2.98 " class="primitive"/>
  </g>
  <g transform="translate(75.36,66.82)">
    <path fill="none" d="M56.85,12.76 L-56.85,-12.76 " class="primitive"/>
  </g>
  <g transform="translate(111.9,101.41)">
    <path fill="none" d="M20.9,-19.69 L-20.9,19.69 " class="primitive"/>
  </g>
  <g transform="translate(113.71,76.06)">
    <path fill="none" d="M18.49,3.59 L-18.49,-3.59 " class="primitive"/>
  </g>
  <g transform="translate(85.56,107.28)">
    <path fill="none" d="M46.89,-26.03 L-46.89,26.03 " class="primitive"/>
  </g>
  <g transform="translate(102.26,79.92)">
    <path fill="none" d="M0.4,-61.28 L-0.4,61.28 " class="primitive"/>
  </g>
  <g transform="translate(82.67,15.9)">
    <path fill="none" d="M17.65,0.34 L-17.65,-0.34 " class="primitive"/>
  </g>
  <g transform="translate(63.01,60.77)">
    <path fill="none" d="M38.09,-42.73 L-38.09,42.73 " class="primitive"/>
  </g>
  <g transform="translate(120.3,34.86)">
    <path fill="none" d="M-16,-16.87 L16,16.87 " class="primitive"/>
  </g>
  <g transform="translate(122.95,63.16)">
    <path fill="none" d="M-19.34,-44.72 L19.34,44.72 " class="primitive"/>
  </g>
  <g transform="translate(96.86,80.64)">
    <path fill="none" d="M5.6,-62.01 L-5.6,62.01 " class="primitive"/>
  </g>
  <g transform="translate(109.39,25.33)">
    <path fill="none" d="M-5.32,-7.16 L5.32,7.16 " class="primitive"/>
  </g>
  <g transform="translate(79.18,145.05)">
    <path fill="none" d="M20.31,-1.33 L-20.31,1.33 " class="primitive"/>
  </g>
  <g transform="translate(62.6,124.41)">
    <path fill="none" d="M37.12,18.11 L-37.12,-18.11 " class="primitive"/>
  </g>
  <g transform="translate(106.52,143.53)">
    <path fill="none" d="M-2.32,0.01 L2.32,-0.01 " class="primitive"/>
  </g>
  <g transform="translate(85.03,145.11)">
    <path fill="none" d="M14.46,-1.34 L-14.46,1.34 " class="primitive"/>
  </g>
  <g transform="translate(79.7,101.97)">
    <path fill="none" d="M21.03,39.5 L-21.03,-39.5 " class="primitive"/>
  </g>
  <g transform="translate(63.03,132.11)">
    <path fill="none" d="M36.55,10.78 L-36.55,-10.78 " class="primitive"/>
  </g>
  <g transform="translate(76.29,97.48)">
    <path fill="none" d="M24.4,44.02 L-24.4,-44.02 " class="primitive"/>
  </g>
  <g transform="translate(39.94,125.9)">
    <path fill="none" d="M15.1,18.8 L-15.1,-18.8 " class="primitive"/>
  </g>
  <g transform="translate(49.89,94.88)">
    <path fill="none" d="M6.33,49.32 L-6.33,-49.32 " class="primitive"/>
  </g>
  <g transform="translate(40,95.14)">
    <path fill="none" d="M15.8,49.15 L-15.8,-49.15 " class="primitive"/>
  </g>
  <g transform="translate(83.86,145.02)">
    <path fill="none" d="M-24.99,1.38 L24.99,-1.38 " class="primitive"/>
  </g>
  <g transform="translate(101.59,124.8)">
    <path fill="none" d="M-42.95,20.71 L42.95,-20.71 " class="primitive"/>
  </g>
  <g transform="translate(57.04,103.46)">
    <path fill="none" d="M-0.5,40.72 L0.5,-40.72 " class="primitive"/>
  </g>
  <g transform="translate(43.01,60.39)">
    <path fill="none" d="M18.71,-42.72 L-18.71,42.72 " class="primitive"/>
  </g>
  <g transform="translate(52.96,29.36)">
    <path fill="none" d="M8.35,-11.92 L-8.35,11.92 " class="primitive"/>
  </g>
  <g transform="translate(43.07,29.63)">
    <path fill="none" d="M17.68,-12.74 L-17.68,12.74 " class="primitive"/>
  </g>
  <g transform="translate(86.93,79.51)">
    <path fill="none" d="M-23.43,-61.79 L23.43,61.79 " class="primitive"/>
  </g>
  <g transform="translate(82.88,67.92)">
    <path fill="none" d="M-19.37,-50.21 L19.37,50.21 " class="primitive"/>
  </g>
  <g transform="translate(103.5,40.87)">
    <path fill="none" d="M-38.83,-24.11 L38.83,24.11 " class="primitive"/>
  </g>
  <g transform="translate(33.31,74.24)">
    <path fill="none" d="M-9.23,28.78 L9.23,-28.78 " class="primitive"/>
  </g>
  <g transform="translate(23.42,74.51)">
    <path fill="none" d="M-0.06,28.4 L0.06,-28.4 " class="primitive"/>
  </g>
  <g transform="translate(67.28,124.39)">
    <path fill="none" d="M-41.76,-18.18 L41.76,18.18 " class="primitive"/>
  </g>
  <g transform="translate(63.89,97.23)">
    <path fill="none" d="M-38.22,7.57 L38.22,-7.57 " class="primitive"/>
  </g>
  <g transform="translate(80.64,79.36)">
    <path fill="none" d="M-55.13,24.94 L55.13,-24.94 " class="primitive"/>
  </g>
  <g transform="translate(45.79,125.97)">
    <path fill="none" d="M-20.7,-19.1 L20.7,19.1 " class="primitive"/>
  </g>
  <g transform="translate(33.37,43.48)">
    <path fill="none" d="M7.54,-0.2 L-7.54,0.2 " class="primitive"/>
  </g>
  <g transform="translate(77.23,93.36)">
    <path fill="none" d="M-32.64,-48.2 L32.64,48.2 " class="primitive"/>
  </g>
  <g transform="translate(90.59,48.33)">
    <path fill="none" d="M-44.98,-4.86 L44.98,4.86 " class="primitive"/>
  </g>
  <g transform="translate(83.16,89.25)">
    <path fill="none" d="M-38.35,-44.26 L38.35,44.26 " class="primitive"/>
  </g>
  <g transform="translate(55.74,94.94)">
    <path fill="none" d="M-11.92,-49.44 L11.92,49.44 " class="primitive"/>
  </g>
  <g transform="translate(79.69,38.79)">
    <path fill="none" d="M-34.08,4.14 L34.08,-4.14 " class="primitive"/>
  </g>
  <g transform="translate(93.8,54.72)">
    <path fill="none" d="M-48.24,-10.98 L48.24,10.98 " class="primitive"/>
  </g>
  <g transform="translate(57.84,65.26)">
    <path fill="none" d="M-13.27,-20.08 L13.27,20.08 " class="primitive"/>
  </g>
  <g transform="translate(67.34,93.63)">
    <path fill="none" d="M-42.3,-48.11 L42.3,48.11 " class="primitive"/>
  </g>
  <g transform="translate(63.95,66.48)">
    <path fill="none" d="M-38.41,-21.57 L38.41,21.57 " class="primitive"/>
  </g>
  <g transform="translate(80.7,48.6)">
    <path fill="none" d="M-54.87,-4.65 L54.87,4.65 " class="primitive"/>
  </g>
  <g transform="translate(38.82,32.41)">
    <path fill="none" d="M-13.45,9.94 L13.45,-9.94 " class="primitive"/>
  </g>
  <g transform="translate(30.05,89.1)">
    <path fill="none" d="M-6.23,-43.02 L6.23,43.02 " class="primitive"/>
  </g>
  <g transform="translate(117.13,139.4)">
    <path fill="none" d="M-3.99,2.77 L3.99,-2.77 " class="primitive"/>
  </g>
  <g transform="translate(127.21,126.77)">
    <path fill="none" d="M-14.38,15.03 L14.38,-15.03 " class="primitive"/>
  </g>
  <g transform="translate(100.24,133.11)">
    <path fill="none" d="M9.25,8.77 L-9.25,-8.77 " class="primitive"/>
  </g>
  <g transform="translate(67.71,132.09)">
    <path fill="none" d="M41.21,10.82 L-41.21,-10.82 " class="primitive"/>
  </g>
  <g transform="translate(113.74,112.25)">
    <path fill="none" d="M-8.44,-20.86 L8.44,20.86 " class="primitive"/>
  </g>
  <g transform="translate(79.29,55.13)">
    <path fill="none" d="M23.73,32.17 L-23.73,-32.17 " class="primitive"/>
  </g>
  <g transform="translate(90.41,59.26)">
    <path fill="none" d="M13.01,27.8 L-13.01,-27.8 " class="primitive"/>
  </g>
  <g transform="translate(124.03,89.32)">
    <path fill="none" d="M-17.26,-0.1 L17.26,0.1 " class="primitive"/>
  </g>
  <g transform="translate(60.31,71.37)">
    <path fill="none" d="M41.92,16.95 L-41.92,-16.95 " class="primitive"/>
  </g>
  <g transform="translate(98.66,80.61)">
    <path fill="none" d="M4.44,6.63 L-4.44,-6.63 " class="primitive"/>
  </g>
  <g transform="translate(80.99,74.79)">
    <path fill="none" d="M21.42,13.17 L-21.42,-13.17 " class="primitive"/>
  </g>
  <g transform="translate(60.04,76.69)">
    <path fill="none" d="M42.11,11.87 L-42.11,-11.87 " class="primitive"/>
  </g>
  <g transform="translate(142.29,78.26)">
    <path fill="none" d="M-3.96,-22.49 L3.96,22.49 " class="primitive"/>
  </g>
  <g transform="translate(107.16,41.39)">
    <path fill="none" d="M28.57,11.2 L-28.57,-11.2 " class="primitive"/>
  </g>
  <g transform="translate(97.74,56.92)">
    <path fill="none" d="M37.83,-3.27 L-37.83,3.27 " class="primitive"/>
  </g>
  <g transform="translate(120.77,40)">
    <path fill="none" d="M15.29,11.99 L-15.29,-11.99 " class="primitive"/>
  </g>
  <g transform="translate(134.86,119.18)">
    <path fill="none" d="M-10.41,14.21 L10.41,-14.21 " class="primitive"/>
  </g>
  <g transform="translate(128.93,131.12)">
    <path fill="none" d="M-3.95,2.81 L3.95,-2.81 " class="primitive"/>
  </g>
  <g transform="translate(85.6,139.14)">
    <path fill="none" d="M35.11,-3.61 L-35.11,3.61 " class="primitive"/>
  </g>
  <g transform="translate(106.17,129.01)">
    <path fill="none" d="M14.68,5.46 L-14.68,-5.46 " class="primitive"/>
  </g>
  <g transform="translate(107.98,103.66)">
    <path fill="none" d="M14.06,29.51 L-14.06,-29.51 " class="primitive"/>
  </g>
  <g transform="translate(73.64,127.98)">
    <path fill="none" d="M47.09,6.97 L-47.09,-6.97 " class="primitive"/>
  </g>
  <g transform="translate(79.84,134.87)">
    <path fill="none" d="M40.87,0.4 L-40.87,-0.4 " class="primitive"/>
  </g>
  <g transform="translate(98.69,65.55)">
    <path fill="none" d="M-42.86,-42.82 L42.86,42.82 " class="primitive"/>
  </g>
  <g transform="translate(66.45,17.2)">
    <path fill="none" d="M-10.04,3.16 L10.04,-3.16 " class="primitive"/>
  </g>
  <g transform="translate(65.28,25.19)">
    <path fill="none" d="M-8.9,-3.31 L8.9,3.31 " class="primitive"/>
  </g>
  <g transform="translate(61.19,83.86)">
    <path fill="none" d="M-6.76,-60.46 L6.76,60.46 " class="primitive"/>
  </g>
  <g transform="translate(95.97,33.43)">
    <path fill="none" d="M-39.55,-11.69 L39.55,11.69 " class="primitive"/>
  </g>
  <g transform="translate(63.29,54.19)">
    <path fill="none" d="M-8.5,-30.85 L8.5,30.85 " class="primitive"/>
  </g>
  <g transform="translate(112.7,58.2)">
    <path fill="none" d="M32.54,42.99 L-32.54,-42.99 " class="primitive"/>
  </g>
  <g transform="translate(117.24,99.41)">
    <path fill="none" d="M27.09,3.37 L-27.09,-3.37 " class="primitive"/>
  </g>
  <g transform="translate(118.86,124.03)">
    <path fill="none" d="M25.93,-19.54 L-25.93,19.54 " class="primitive"/>
  </g>
  <g transform="translate(140.74,115.01)">
    <path fill="none" d="M4.88,-9.83 L-4.88,9.83 " class="primitive"/>
  </g>
  <g transform="translate(97.41,123.03)">
    <path fill="none" d="M47.08,-19.08 L-47.08,19.08 " class="primitive"/>
  </g>
  <g transform="translate(81.64,89.52)">
    <path fill="none" d="M62.72,13.07 L-62.72,-13.07 " class="primitive"/>
  </g>
  <g transform="translate(98.71,77.24)">
    <path fill="none" d="M45.89,24.72 L-45.89,-24.72 " class="primitive"/>
  </g>
  <g transform="translate(109.81,69.68)">
    <path fill="none" d="M31.91,38.54 L-31.91,-38.54 " class="primitive"/>
  </g>
  <g transform="translate(118.07,91.03)">
    <path fill="none" d="M23.28,17.59 L-23.28,-17.59 " class="primitive"/>
  </g>
  <g transform="translate(140.5,77.91)">
    <path fill="none" d="M2.52,29.78 L-2.52,-29.78 " class="primitive"/>
  </g>
  <g transform="translate(46.04,54.68)">
    <path fill="none" d="M-31.24,39.5 L31.24,-39.5 " class="primitive"/>
  </g>
  <g transform="translate(50.57,95.88)">
    <path fill="none" d="M-34.88,0.13 L34.88,-0.13 " class="primitive"/>
  </g>
  <g transform="translate(52.19,120.51)">
    <path fill="none" d="M-36.86,-23.23 L36.86,23.23 " class="primitive"/>
  </g>
  <g transform="translate(64.72,65.2)">
    <path fill="none" d="M-49.37,29.61 L49.37,-29.61 " class="primitive"/>
  </g>
  <g transform="translate(30.74,119.51)">
    <path fill="none" d="M-16,-21.59 L16,21.59 " class="primitive"/>
  </g>
  <g transform="translate(58.48,61.29)">
    <path fill="none" d="M-43.28,33.29 L43.28,-33.29 " class="primitive"/>
  </g>
  <g transform="translate(77.57,21.33)">
    <path fill="none" d="M0.83,-5.66 L-0.83,5.66 " class="primitive"/>
  </g>
  <g transform="translate(111.19,51.38)">
    <path fill="none" d="M-30.92,-36.26 L30.92,36.26 " class="primitive"/>
  </g>
  <g transform="translate(73.48,80)">
    <path fill="none" d="M5.08,-64.32 L-5.08,64.32 " class="primitive"/>
  </g>
  <g transform="translate(63.44,78.16)">
    <path fill="none" d="M14.76,-62.54 L-14.76,62.54 " class="primitive"/>
  </g>
  <g transform="translate(98.73,34.82)">
    <path fill="none" d="M-18.38,-19.76 L18.38,19.76 " class="primitive"/>
  </g>
  <g transform="translate(64.74,32.37)">
    <path fill="none" d="M12.6,-17.14 L-12.6,17.14 " class="primitive"/>
  </g>
  <g transform="translate(82.1,62.53)">
    <path fill="none" d="M-5.31,-30.89 L5.31,30.89 " class="primitive"/>
  </g>
  <g transform="translate(110.02,59.38)">
    <path fill="none" d="M-31.87,-28.48 L31.87,28.48 " class="primitive"/>
  </g>
  <g transform="translate(46.5,52.65)">
    <path fill="none" d="M28.03,-21.87 L-28.03,21.87 " class="primitive"/>
  </g>
  <g transform="translate(115.72,92.59)">
    <path fill="none" d="M-25.58,2.89 L25.58,-2.89 " class="primitive"/>
  </g>
  <g transform="translate(89.42,120.37)">
    <path fill="none" d="M-1.47,-22.27 L1.47,22.27 " class="primitive"/>
  </g>
  <g transform="translate(101.96,65.06)">
    <path fill="none" d="M-13.17,28.54 L13.17,-28.54 " class="primitive"/>
  </g>
  <g transform="translate(95.45,108.04)">
    <path fill="none" d="M-6.4,-10.29 L6.4,10.29 " class="primitive"/>
  </g>
  <g transform="translate(52.01,74.64)">
    <path fill="none" d="M33.77,19.91 L-33.77,-19.91 " class="primitive"/>
  </g>
  <g transform="translate(72.69,78.07)">
    <path fill="none" d="M13.59,15.89 L-13.59,-15.89 " class="primitive"/>
  </g>
  <g transform="translate(59.1,111.21)">
    <path fill="none" d="M26.63,-14.35 L-26.63,14.35 " class="primitive"/>
  </g>
  <g transform="translate(62.21,115.1)">
    <path fill="none" d="M23.72,-17.93 L-23.72,17.93 " class="primitive"/>
  </g>
  <g transform="translate(116.07,80.98)">
    <path fill="none" d="M-26.18,13.67 L26.18,-13.67 " class="primitive"/>
  </g>
  <g transform="translate(87.72,55.96)">
    <path fill="none" d="M0.08,37.43 L-0.08,-37.43 " class="primitive"/>
  </g>
  <g transform="translate(117.34,117.22)">
    <path fill="none" d="M24.68,-26.07 L-24.68,26.07 " class="primitive"/>
  </g>
  <g transform="translate(129.88,61.9)">
    <path fill="none" d="M12.71,25.42 L-12.71,-25.42 " class="primitive"/>
  </g>
  <g transform="translate(139.22,108.19)">
    <path fill="none" d="M3.88,-16.46 L-3.88,16.46 " class="primitive"/>
  </g>
  <g transform="translate(123.37,104.88)">
    <path fill="none" d="M18.4,-14.02 L-18.4,14.02 " class="primitive"/>
  </g>
  <g transform="translate(79.63,145.83)">
    <path fill="none" d="M9.06,-0.66 L-9.06,0.66 " class="primitive"/>
  </g>
  <g transform="translate(103.58,89.69)">
    <path fill="none" d="M-12.01,53.01 L12.01,-53.01 " class="primitive"/>
  </g>
  <g transform="translate(112.92,135.97)">
    <path fill="none" d="M-19.7,8.13 L19.7,-8.13 " class="primitive"/>
  </g>
  <g transform="translate(69.59,144)">
    <path fill="none" d="M19.1,0.89 L-19.1,-0.89 " class="primitive"/>
  </g>
  <g transform="translate(57.63,132.83)">
    <path fill="none" d="M31.2,11.36 L-31.2,-11.36 " class="primitive"/>
  </g>
  <g transform="translate(85.65,133.5)">
    <path fill="none" d="M-15.56,11.75 L15.56,-11.75 " class="primitive"/>
  </g>
  <g transform="translate(93.46,101.49)">
    <path fill="none" d="M-24.1,43.12 L24.1,-43.12 " class="primitive"/>
  </g>
  <g transform="translate(109.6,77.35)">
    <path fill="none" d="M6.16,-40.65 L-6.16,40.65 " class="primitive"/>
  </g>
  <g transform="translate(66.16,43.96)">
    <path fill="none" d="M47.64,-9.14 L-47.64,9.14 " class="primitive"/>
  </g>
  <g transform="translate(102.7,78.55)">
    <path fill="none" d="M12.73,-41.92 L-12.73,41.92 " class="primitive"/>
  </g>
  <g transform="translate(118.95,123.64)">
    <path fill="none" d="M13.55,2.83 L-13.55,-2.83 " class="primitive"/>
  </g>
  <g transform="translate(91.47,134.97)">
    <path fill="none" d="M41.01,-7.59 L-41.01,7.59 " class="primitive"/>
  </g>
  <g transform="translate(112.04,124.83)">
    <path fill="none" d="M20.41,1.9 L-20.41,-1.9 " class="primitive"/>
  </g>
  <g transform="translate(113.86,99.49)">
    <path fill="none" d="M19.52,25.59 L-19.52,-25.59 " class="primitive"/>
  </g>
  <g transform="translate(136.29,86.37)">
    <path fill="none" d="M-1.4,38.22 L1.4,-38.22 " class="primitive"/>
  </g>
  <g transform="translate(75.71,101.46)">
    <path fill="none" d="M56.93,24.56 L-56.93,-24.56 " class="primitive"/>
  </g>
  <g transform="translate(96.19,121.52)">
    <path fill="none" d="M4.58,-0.79 L-4.58,0.79 " class="primitive"/>
  </g>
  <g transform="translate(110.9,88.32)">
    <path fill="none" d="M-7.25,29.72 L7.25,-29.72 " class="primitive"/>
  </g>
  <g transform="translate(76.92,85.86)">
    <path fill="none" d="M24.75,32.59 L-24.75,-32.59 " class="primitive"/>
  </g>
  <g transform="translate(95.37,68.25)">
    <path fill="none" d="M7.38,49.75 L-7.38,-49.75 " class="primitive"/>
  </g>
  <g transform="translate(52.75,88.13)">
    <path fill="none" d="M-34.83,-32.97 L34.83,32.97 " class="primitive"/>
  </g>
  <g transform="translate(54.56,62.78)">
    <path fill="none" d="M-36.06,-8.69 L36.06,8.69 " class="primitive"/>
  </g>
  <g transform="translate(15.93,58.86)">
    <path fill="none" d="M0.15,-2.97 L-0.15,2.97 " class="primitive"/>
  </g>
  <g transform="translate(26.41,94)">
    <path fill="none" d="M-9.63,-38.17 L9.63,38.17 " class="primitive"/>
  </g>
  <g transform="translate(44.31,70.42)">
    <path fill="none" d="M-26.08,-15.67 L26.08,15.67 " class="primitive"/>
  </g>
  <g transform="translate(68.71,132.86)">
    <path fill="none" d="M-18.46,9.1 L18.46,-9.1 " class="primitive"/>
  </g>
  <g transform="translate(83.43,99.65)">
    <path fill="none" d="M-33.8,41.51 L33.8,-41.51 " class="primitive"/>
  </g>
  <g transform="translate(70.53,107.51)">
    <path fill="none" d="M-21.12,33.49 L21.12,-33.49 " class="primitive"/>
  </g>
  <g transform="translate(52.86,101.69)">
    <path fill="none" d="M-4.44,38.96 L4.44,-38.96 " class="primitive"/>
  </g>
  <g transform="translate(31.9,103.59)">
    <path fill="none" d="M15.34,37.22 L-15.34,-37.22 " class="primitive"/>
  </g>
  <g transform="translate(104,89.52)">
    <path fill="none" d="M-13.76,31.05 L13.76,-31.05 " class="primitive"/>
  </g>
  <g transform="translate(91.1,97.37)">
    <path fill="none" d="M-1.64,23 L1.64,-23 " class="primitive"/>
  </g>
  <g transform="translate(59.84,124.7)">
    <path fill="none" d="M27.09,-1.82 L-27.09,1.82 " class="primitive"/>
  </g>
  <g transform="translate(105.81,64.17)">
    <path fill="none" d="M10.89,-6.63 L-10.89,6.63 " class="primitive"/>
  </g>
  <g transform="translate(74.56,91.5)">
    <path fill="none" d="M42.31,-33.72 L-42.31,33.72 " class="primitive"/>
  </g>
  <g transform="translate(71.47,88.49)">
    <path fill="none" d="M45.3,-30.85 L-45.3,30.85 " class="primitive"/>
  </g>
  <g transform="translate(84.73,53.86)">
    <path fill="none" d="M31.63,2.28 L-31.63,-2.28 " class="primitive"/>
  </g>
  <g transform="translate(111.17,41.43)">
    <path fill="none" d="M6.48,12.77 L-6.48,-12.77 " class="primitive"/>
  </g>
  <g transform="translate(75.24,66.21)">
    <path fill="none" d="M15.43,5.08 L-15.43,-5.08 " class="primitive"/>
  </g>
  <g transform="translate(54.76,74)">
    <path fill="none" d="M35.79,-1.85 L-35.79,1.85 " class="primitive"/>
  </g>
  <g transform="translate(98.27,49.29)">
    <path fill="none" d="M-4.82,20.44 L4.82,-20.44 " class="primitive"/>
  </g>
  <g transform="translate(82.66,79.67)">
    <path fill="none" d="M8.36,-6.23 L-8.36,6.23 " class="primitive"/>
  </g>
  <g transform="translate(43.98,93.54)">
    <path fill="none" d="M12.69,-30.97 L-12.69,30.97 " class="primitive"/>
  </g>
  <g transform="translate(40.89,90.53)">
    <path fill="none" d="M15.53,-28.08 L-15.53,28.08 " class="primitive"/>
  </g>
  <g transform="translate(97.67,53.09)">
    <path fill="none" d="M-37.79,6.88 L37.79,-6.88 " class="primitive"/>
  </g>
  <g transform="translate(37.09,68.18)">
    <path fill="none" d="M18.28,-6.95 L-18.28,6.95 " class="primitive"/>
  </g>
  <g transform="translate(76.72,54.99)">
    <path fill="none" d="M-58.73,8.85 L58.73,-8.85 " class="primitive"/>
  </g>
  <g transform="translate(26.14,99.32)">
    <path fill="none" d="M-9.8,-32.87 L9.8,32.87 " class="primitive"/>
  </g>
  <g transform="translate(59.64,45.37)">
    <path fill="none" d="M-41.82,17.89 L41.82,-17.89 " class="primitive"/>
  </g>
  <g transform="translate(27.31,123.68)">
    <path fill="none" d="M1.4,1.36 L-1.4,-1.36 " class="primitive"/>
  </g>
  <g transform="translate(84.09,86.23)">
    <path fill="none" d="M-51.81,39.03 L51.81,-39.03 " class="primitive"/>
  </g>
  <g transform="translate(40.57,89.04)">
    <path fill="none" d="M-9.56,35.36 L9.56,-35.36 " class="primitive"/>
  </g>
  <g transform="translate(33.51,130.57)">
    <path fill="none" d="M-1.63,-2.04 L1.63,2.04 " class="primitive"/>
  </g>
  <g transform="translate(20.42,98.32)">
    <path fill="none" d="M3.41,20.03 L-3.41,-20.03 " class="primitive"/>
  </g>
  <g transform="translate(30.42,127.56)">
    <path fill="none" d="M-4.62,-5.14 L4.62,5.14 " class="primitive"/>
  </g>
  <g transform="translate(84.28,93.45)">
    <path fill="none" d="M-57.91,26.25 L57.91,-26.25 " class="primitive"/>
  </g>
  <g transform="translate(55.93,68.42)">
    <path fill="none" d="M-30.49,50.24 L30.49,-50.24 " class="primitive"/>
  </g>
  <g transform="translate(77.2,60.88)">
    <path fill="none" d="M58.3,-14.52 L-58.3,14.52 " class="primitive"/>
  </g>
  <g transform="translate(94.26,48.59)">
    <path fill="none" d="M41.17,-2.66 L-41.17,2.66 " class="primitive"/>
  </g>
  <g transform="translate(120.7,36.17)">
    <path fill="none" d="M15.02,8.46 L-15.02,-8.46 " class="primitive"/>
  </g>
  <g transform="translate(33.68,63.69)">
    <path fill="none" d="M-15.15,10.91 L15.15,-10.91 " class="primitive"/>
  </g>
  <g transform="translate(80.47,71.1)">
    <path fill="none" d="M-61.51,4.69 L61.51,-4.69 " class="primitive"/>
  </g>
  <g transform="translate(44.51,81.64)">
    <path fill="none" d="M-25.59,-5.2 L25.59,5.2 " class="primitive"/>
  </g>
  <g transform="translate(108.37,76.77)">
    <path fill="none" d="M33.7,-9.88 L-33.7,9.88 " class="primitive"/>
  </g>
  <g transform="translate(88.02,56.93)">
    <path fill="none" d="M14.53,-28.28 L-14.53,28.28 " class="primitive"/>
  </g>
  <g transform="translate(80.03,51.74)">
    <path fill="none" d="M-7.12,33.27 L7.12,-33.27 " class="primitive"/>
  </g>
</g>
<g stroke-width="0.42" stroke="#D3D3D3" id="img-90a7ad38-2">
</g>
<g font-size="4" stroke="#000000" stroke-opacity="0.000" fill="#000000" id="img-90a7ad38-3">
</g>
<g transform="translate(114.45,78.5)" fill="#37B565" stroke="#000000" stroke-width="0">
  <circle cx="0" cy="0" r="2.26" class="primitive"/>
</g>
<g transform="translate(111.66,18.87)" fill="#37B565" stroke="#000000" stroke-width="0">
  <circle cx="0" cy="0" r="2.26" class="primitive"/>
</g>
<g transform="translate(130.14,32.08)" fill="#37B565" stroke="#000000" stroke-width="0">
  <circle cx="0" cy="0" r="2.26" class="primitive"/>
</g>
<g transform="translate(42.81,71.68)" fill="#37B565" stroke="#000000" stroke-width="0">
  <circle cx="0" cy="0" r="2.26" class="primitive"/>
</g>
<g transform="translate(41.08,24.92)" fill="#37B565" stroke="#000000" stroke-width="0">
  <circle cx="0" cy="0" r="2.26" class="primitive"/>
</g>
<g transform="translate(28.01,81.52)" fill="#37B565" stroke="#000000" stroke-width="0">
  <circle cx="0" cy="0" r="2.26" class="primitive"/>
</g>
<g transform="translate(57.6,111.95)" fill="#37B565" stroke="#000000" stroke-width="0">
  <circle cx="0" cy="0" r="2.26" class="primitive"/>
</g>
<g transform="translate(76.69,128.39)" fill="#37B565" stroke="#000000" stroke-width="0">
  <circle cx="0" cy="0" r="2.26" class="primitive"/>
</g>
<g transform="translate(134.51,80.1)" fill="#37B565" stroke="#000000" stroke-width="0">
  <circle cx="0" cy="0" r="2.26" class="primitive"/>
</g>
<g transform="translate(102.67,16.28)" fill="#37B565" stroke="#000000" stroke-width="0">
  <circle cx="0" cy="0" r="2.26" class="primitive"/>
</g>
<g transform="translate(101.84,143.56)" fill="#37B565" stroke="#000000" stroke-width="0">
  <circle cx="0" cy="0" r="2.26" class="primitive"/>
</g>
<g transform="translate(56.52,146.54)" fill="#37B565" stroke="#000000" stroke-width="0">
  <circle cx="0" cy="0" r="2.26" class="primitive"/>
</g>
<g transform="translate(62.66,15.52)" fill="#37B565" stroke="#000000" stroke-width="0">
  <circle cx="0" cy="0" r="2.26" class="primitive"/>
</g>
<g transform="translate(23.36,105.27)" fill="#37B565" stroke="#000000" stroke-width="0">
  <circle cx="0" cy="0" r="2.26" class="primitive"/>
</g>
<g transform="translate(43.27,43.21)" fill="#37B565" stroke="#000000" stroke-width="0">
  <circle cx="0" cy="0" r="2.26" class="primitive"/>
</g>
<g transform="translate(23.48,43.75)" fill="#37B565" stroke="#000000" stroke-width="0">
  <circle cx="0" cy="0" r="2.26" class="primitive"/>
</g>
<g transform="translate(111.2,143.51)" fill="#37B565" stroke="#000000" stroke-width="0">
  <circle cx="0" cy="0" r="2.26" class="primitive"/>
</g>
<g transform="translate(104.42,89.2)" fill="#37B565" stroke="#000000" stroke-width="0">
  <circle cx="0" cy="0" r="2.26" class="primitive"/>
</g>
<g transform="translate(137.92,53.45)" fill="#37B565" stroke="#000000" stroke-width="0">
  <circle cx="0" cy="0" r="2.26" class="primitive"/>
</g>
<g transform="translate(123.06,135.29)" fill="#37B565" stroke="#000000" stroke-width="0">
  <circle cx="0" cy="0" r="2.26" class="primitive"/>
</g>
<g transform="translate(54.17,21.06)" fill="#37B565" stroke="#000000" stroke-width="0">
  <circle cx="0" cy="0" r="2.26" class="primitive"/>
</g>
<g transform="translate(146.67,103.07)" fill="#37B565" stroke="#000000" stroke-width="0">
  <circle cx="0" cy="0" r="2.26" class="primitive"/>
</g>
<g transform="translate(143.22,110.04)" fill="#37B565" stroke="#000000" stroke-width="0">
  <circle cx="0" cy="0" r="2.26" class="primitive"/>
</g>
<g transform="translate(13.33,96.02)" fill="#37B565" stroke="#000000" stroke-width="0">
  <circle cx="0" cy="0" r="2.26" class="primitive"/>
</g>
<g transform="translate(78.74,13.33)" fill="#37B565" stroke="#000000" stroke-width="0">
  <circle cx="0" cy="0" r="2.26" class="primitive"/>
</g>
<g transform="translate(76.39,29.33)" fill="#37B565" stroke="#000000" stroke-width="0">
  <circle cx="0" cy="0" r="2.26" class="primitive"/>
</g>
<g transform="translate(87.8,95.74)" fill="#37B565" stroke="#000000" stroke-width="0">
  <circle cx="0" cy="0" r="2.26" class="primitive"/>
</g>
<g transform="translate(143.64,89.44)" fill="#37B565" stroke="#000000" stroke-width="0">
  <circle cx="0" cy="0" r="2.26" class="primitive"/>
</g>
<g transform="translate(91.04,145)" fill="#37B565" stroke="#000000" stroke-width="0">
  <circle cx="0" cy="0" r="2.26" class="primitive"/>
</g>
<g transform="translate(68.22,146.67)" fill="#37B565" stroke="#000000" stroke-width="0">
  <circle cx="0" cy="0" r="2.26" class="primitive"/>
</g>
<g transform="translate(116.11,34.37)" fill="#37B565" stroke="#000000" stroke-width="0">
  <circle cx="0" cy="0" r="2.26" class="primitive"/>
</g>
<g transform="translate(134.8,126.95)" fill="#37B565" stroke="#000000" stroke-width="0">
  <circle cx="0" cy="0" r="2.26" class="primitive"/>
</g>
<g transform="translate(103.09,120.33)" fill="#37B565" stroke="#000000" stroke-width="0">
  <circle cx="0" cy="0" r="2.26" class="primitive"/>
</g>
<g transform="translate(16.21,53.54)" fill="#37B565" stroke="#000000" stroke-width="0">
  <circle cx="0" cy="0" r="2.26" class="primitive"/>
</g>
<g transform="translate(48.14,142.99)" fill="#37B565" stroke="#000000" stroke-width="0">
  <circle cx="0" cy="0" r="2.26" class="primitive"/>
</g>
<g transform="translate(89.28,122.72)" fill="#37B565" stroke="#000000" stroke-width="0">
  <circle cx="0" cy="0" r="2.26" class="primitive"/>
</g>
<g transform="translate(118.71,56.31)" fill="#37B565" stroke="#000000" stroke-width="0">
  <circle cx="0" cy="0" r="2.26" class="primitive"/>
</g>
<g transform="translate(92.91,72.03)" fill="#37B565" stroke="#000000" stroke-width="0">
  <circle cx="0" cy="0" r="2.26" class="primitive"/>
</g>
<g transform="translate(57.57,60.39)" fill="#37B565" stroke="#000000" stroke-width="0">
  <circle cx="0" cy="0" r="2.26" class="primitive"/>
</g>
<g transform="translate(15.66,64.19)" fill="#37B565" stroke="#000000" stroke-width="0">
  <circle cx="0" cy="0" r="2.26" class="primitive"/>
</g>
<g transform="translate(30.4,126.68)" fill="#37B565" stroke="#000000" stroke-width="0">
  <circle cx="0" cy="0" r="2.26" class="primitive"/>
</g>
<g transform="translate(24.22,120.67)" fill="#37B565" stroke="#000000" stroke-width="0">
  <circle cx="0" cy="0" r="2.26" class="primitive"/>
</g>
<g transform="translate(137.78,45.79)" fill="#37B565" stroke="#000000" stroke-width="0">
  <circle cx="0" cy="0" r="2.26" class="primitive"/>
</g>
<g transform="translate(16.61,75.97)" fill="#37B565" stroke="#000000" stroke-width="0">
  <circle cx="0" cy="0" r="2.26" class="primitive"/>
</g>
<g transform="translate(50.74,51.4)" fill="#37B565" stroke="#000000" stroke-width="0">
  <circle cx="0" cy="0" r="2.26" class="primitive"/>
</g>
<g transform="translate(36.61,134.45)" fill="#37B565" stroke="#000000" stroke-width="0">
  <circle cx="0" cy="0" r="2.26" class="primitive"/>
</g>
<g transform="translate(144.33,66.23)" fill="#37B565" stroke="#000000" stroke-width="0">
  <circle cx="0" cy="0" r="2.26" class="primitive"/>
</g>
<g transform="translate(103.63,26.56)" fill="#37B565" stroke="#000000" stroke-width="0">
  <circle cx="0" cy="0" r="2.26" class="primitive"/>
</g>
<g transform="translate(72.41,87.31)" fill="#37B565" stroke="#000000" stroke-width="0">
  <circle cx="0" cy="0" r="2.26" class="primitive"/>
</g>
<g transform="translate(87.64,16.17)" fill="#37B565" stroke="#000000" stroke-width="0">
  <circle cx="0" cy="0" r="2.26" class="primitive"/>
</g>
<g font-size="4" stroke="#000000" stroke-opacity="0.000" fill="#000000" id="img-90a7ad38-4">
</g>
</svg>
